# xmcd
#
# Track frame offsets:
#	150
#	18420
#	37262
#	51992
#	69324
#	90053
#	107318
#	130419
#	147061
#	160982
#	176443
#	189803
#	202875
#	219660
#	235930
#	250052
#
# Disc length: 3613 seconds
#
# Revision: 1
# Processed by: cddbd v1.5.2PL0 Copyright (c) Steve Scherf et al.
# Submitted via: audiograbber 1.83.01
#
DISCID=cf0e1b10
DTITLE=Various Artist - Now That's What I Call Country Vol. 3
DYEAR=2009
DGENRE=Country
TTITLE0=Kenny Chesney - Ain't Back Yet
TTITLE1=Lady Antebellum - Our Kind Of Love
TTITLE2=Josh Turner - Why Don't We Just Dance
TTITLE3=Zac Brown Band - Highway 20 Ride
TTITLE4=Brad Paisley - American Saturday Night
TTITLE5=Rascal Flatts - Unstoppable
TTITLE6=Keith Urban - Til Summer Comes Around
TTITLE7=George Strait - Living For The Night
TTITLE8=Jason Aldean - Crazy Town
TTITLE9=Chris Young - The Man I Want To Be
TTITLE10=Luke Bryan - Rain Is A Good Thing
TTITLE11=Easton Crobin - A Little More Country Than That
TTITLE12=Martina McBride - Wrong Baby Wrong
TTITLE13=Dierks Bentley - Up On The Ridge
TTITLE14=Little Big Town - Little White Church
TTITLE15=Gary Allan - Get Off On The Pain
EXTD=
EXTT0=
EXTT1=
EXTT2=
EXTT3=
EXTT4=
EXTT5=
EXTT6=
EXTT7=
EXTT8=
EXTT9=
EXTT10=
EXTT11=
EXTT12=
EXTT13=
EXTT14=
EXTT15=
PLAYORDER=
